<svg width="31" height="29" viewBox="0 0 31 29" fill="none" xmlns="http://www.w3.org/2000/svg">
<path d="M28.1818 20.3V15.95C28.1818 14.3405 26.9277 13.05 25.3636 13.05H16.9091V8.7H19.7273V0H11.2727V8.7H14.0909V13.05H5.63636C4.07227 13.05 2.81818 14.3405 2.81818 15.95V20.3H0V29H8.45455V20.3H5.63636V15.95H14.0909V20.3H11.2727V29H19.7273V20.3H16.9091V15.95H25.3636V20.3H22.5455V29H31V20.3H28.1818ZM14.0909 2.9H16.9091V5.8H14.0909V2.9ZM5.63636 26.1H2.81818V23.2H5.63636V26.1ZM16.9091 26.1H14.0909V23.2H16.9091V26.1ZM28.1818 26.1H25.3636V23.2H28.1818V26.1Z" fill="white" fill-opacity="0.5"/>
</svg>
