<svg width="27" height="27" viewBox="0 0 27 27" fill="none" xmlns="http://www.w3.org/2000/svg">
<path d="M19.6696 22.0159L14.3575 19.0761C16.3318 17.5243 16.868 14.4746 16.868 12.7647V9.20551C16.868 6.8487 13.7335 4.22385 10.5851 4.22385C7.43757 4.22385 4.21998 6.84912 4.21998 9.20551V12.7647C4.21998 14.3195 4.87849 17.4649 6.87311 19.0626L1.42381 22.0158C1.42381 22.0158 0 22.6497 0 23.4399V25.5759C0 26.3619 0.638682 27 1.42381 27H19.6696C20.4555 27 21.0942 26.3619 21.0942 25.5759V23.44C21.0942 22.6021 19.6696 22.0158 19.6696 22.0158L19.6696 22.0159ZM19.4068 25.3142H1.68753V23.8071C1.8086 23.719 1.97777 23.617 2.11108 23.5559C2.15071 23.5378 2.19037 23.5188 2.22791 23.4973L7.67761 20.5445C8.17457 20.2752 8.50405 19.7758 8.55425 19.2136C8.60445 18.6513 8.36947 18.1005 7.92904 17.7473C6.5141 16.614 5.90787 14.1038 5.90787 12.7648V9.20558C5.90787 7.99473 8.19271 5.90977 10.5855 5.90977C13.0227 5.90977 15.181 7.9661 15.181 9.20558V12.7648C15.181 14.0852 14.7705 16.6064 13.3146 17.7507C13.0952 17.9233 12.922 18.1476 12.8105 18.4035C12.699 18.6594 12.6528 18.9388 12.6759 19.2169C12.6994 19.4949 12.7915 19.7627 12.9438 19.9964C13.0962 20.2302 13.3042 20.4225 13.5492 20.5564L18.8613 23.4961C18.9082 23.5217 18.9677 23.5496 19.017 23.5711C19.1415 23.6238 19.2946 23.7118 19.4068 23.7894V25.3142ZM25.575 17.8185L20.1839 14.8788C22.1582 13.327 22.7737 10.2773 22.7737 8.56744V5.00821C22.7737 2.65141 19.5604 0 16.412 0C14.3659 0 12.2739 1.11139 11.0564 2.53469C11.7508 2.57765 12.5165 2.57852 13.178 2.78925C14.0668 2.09763 15.1915 1.68629 16.412 1.68629C18.8491 1.68629 21.0863 3.7687 21.0863 5.00866V8.56789C21.0863 9.8883 20.5969 12.4095 19.141 13.5538C18.9216 13.7264 18.7484 13.9507 18.6369 14.2066C18.5255 14.4624 18.4792 14.7419 18.5023 15.02C18.5258 15.298 18.6179 15.5658 18.7703 15.7995C18.9227 16.0332 19.1306 16.2256 19.3756 16.3594L24.7667 19.2991C24.8135 19.3248 24.873 19.3526 24.9224 19.3741C25.0468 19.4268 25.1999 19.5149 25.3121 19.5924V21.0916H21.906C22.4202 21.4793 22.5759 22.034 22.7755 22.7774H25.5754C26.3613 22.7774 27 22.1393 27 21.3533V19.2434C26.9996 18.4047 25.575 17.8185 25.575 17.8185L25.575 17.8185Z" fill="white"/>
</svg>
