<svg width="149" height="86" viewBox="0 0 149 86" fill="none" xmlns="http://www.w3.org/2000/svg">
<path fill-rule="evenodd" clip-rule="evenodd" d="M39.8766 14.2401H19.4081L36.8041 0.800056H59.3966V14.8801L40.4099 33.5467V36.1067C47.4499 37.1734 52.9966 39.6267 57.0499 43.4667C61.1743 47.3067 63.2366 52.5689 63.2366 59.2534C63.2366 64.5156 61.9566 69.1023 59.3966 73.0134C56.8366 76.9245 53.2454 79.9823 48.6232 82.1867C44.001 84.3201 38.561 85.3867 32.3032 85.3867C26.8988 85.3867 22.1699 84.6401 18.1166 83.1467C14.1343 81.6534 10.7921 79.6267 8.08989 77.0667C5.45878 74.5067 3.50323 71.6267 2.22323 68.4267C0.943227 65.2267 0.303226 61.8845 0.303226 58.4001H17.1566C17.5121 61.9556 18.8988 65.1201 21.3166 67.8934C23.8055 70.5956 27.4677 71.9467 32.3032 71.9467C36.8543 71.9467 40.2677 70.7378 42.5432 68.3201C44.8188 65.9023 45.9566 62.9867 45.9566 59.5734C45.9566 55.1645 44.1788 51.7512 40.6232 49.3334C37.0677 46.8445 32.2677 45.6001 26.2232 45.6001H22.4899V33.8667L31.8766 23.8401C33.1566 22.4889 34.4366 21.2089 35.7166 20.0001C37.0677 18.7912 38.4543 17.7245 39.8766 16.8001V14.2401ZM76.8566 84.0001V0.800056H106.51C121.301 0.800056 132.039 4.46228 138.723 11.7867C145.408 19.0401 148.75 29.2445 148.75 42.4001C148.75 43.6409 148.72 44.8558 148.661 46.0448L125.003 63.0767C125.933 61.9204 126.737 60.6104 127.417 59.1467C129.265 55.0934 130.19 49.5112 130.19 42.4001C130.19 35.2889 129.265 29.7423 127.417 25.7601C125.568 21.7067 122.794 18.8623 119.097 17.2267C115.47 15.5201 110.919 14.6667 105.443 14.6667H94.7766V70.1334H105.443C110.351 70.1334 114.517 69.4763 117.939 68.1621L95.9404 84.0001H76.8566Z" fill="white"/>
</svg>
